<?xml version="1.0" encoding="UTF-8"?>
<svg id="Layer_2" data-name="Layer 2" xmlns="http://www.w3.org/2000/svg" viewBox="0 0 109.05 180.41">
  <defs>
    <style>
      .cls-1 {
        fill: #101820;
      }
    </style>
  </defs>
  <g id="Layer_1-2" data-name="Layer 1">
    <g>
      <path class="cls-1" d="M26.97,180.41l41.04-69.5,3.31,1.32c3.5,27.46,6.61,48.52,9.64,68l-53.99.18Z"/>
      <path class="cls-1" d="M22.64,95.94c-6.35-5.08-10.8-12.07-10.8-22.24,0-15.88,6.35-33.67,17.15-51.46C35.98,10.17,46.78,0,60.12,0c9.53,0,20.33,5.08,32.4,17.15l-16.04,29.08c-8.12-3.04-22.95-5.18-38.6,5.86,8.26,7.62,17.15,10.8,27.96,10.8,12.07,0,23.86-6.52,39.74-10.97l3.46,4.62-13.34,54.64c-37.49,4.45-55.47,8.32-93.21,19.71l-2.5-6.12c8.29-13.54,14.38-16.77,22.64-28.84Z"/>
    </g>
  </g>
</svg>